# xmcd
# 
# Track frame offsets:
#     150
#     35436
#     66718
#     78779
#     96792
#     133494
#     155076
#     197042
#     219277
#     260523
# 
# Disc length: 3716
# 
# Revision: 4
# Processed by: cddbd v1.5.2PL0 Copyright (c) Steve Scherf et al.
# Submitted via: fre:ac v1.0.17
# 
DISCID=930e820a
DTITLE=Vijay Iyer Trio - Historicity
DYEAR=2009
DGENRE=Jazz
TTITLE0=Historicity
TTITLE1=Somewhere
TTITLE2=Galang (Trio Riot Version)
TTITLE3=Helix
TTITLE4=Smoke Stack
TTITLE5=Big Brother
TTITLE6=Dogon A.D.
TTITLE7=Mystic Brew (Trixation Version)
TTITLE8=Trident: 2010
TTITLE9=Segment For Sentiment #2
EXTD=YEAR: 2008
EXTT0=
EXTT1=
EXTT2=
EXTT3=
EXTT4=
EXTT5=
EXTT6=
EXTT7=
EXTT8=
EXTT9=
PLAYORDER=
